<svg width="161" height="161" viewBox="0 0 161 161" fill="none" xmlns="http://www.w3.org/2000/svg">
<mask id="mask0_2866_52703" style="mask-type:alpha" maskUnits="userSpaceOnUse" x="13" y="13" width="135" height="135">
<path fill-rule="evenodd" clip-rule="evenodd" d="M80.4332 13.417C43.4032 13.417 13.417 43.4703 13.417 80.5003C13.417 117.53 43.4032 147.584 80.4332 147.584C117.53 147.584 147.584 117.53 147.584 80.5003C147.584 43.4703 117.53 13.417 80.4332 13.417ZM80.5003 134.167C50.8495 134.167 26.8337 110.151 26.8337 80.5003C26.8337 50.8495 50.8495 26.8337 80.5003 26.8337C110.151 26.8337 134.167 50.8495 134.167 80.5003C134.167 110.151 110.151 134.167 80.5003 134.167ZM78.622 46.9587H79.0245C81.7078 46.9587 83.8545 49.1053 83.8545 51.7887V82.2445L109.816 97.6737C112.164 99.0153 112.902 102.034 111.493 104.315C110.151 106.596 107.199 107.267 104.919 105.925L77.0791 89.2212C74.9995 88.0136 73.792 85.7999 73.792 83.452V51.7887C73.792 49.1053 75.9387 46.9587 78.622 46.9587Z" fill="black"/>
</mask>
<g mask="url(#mask0_2866_52703)">
<rect width="161" height="161" fill="#394452"/>
</g>
</svg>
