<svg width="30" height="30" viewBox="0 0 30 30" fill="none" xmlns="http://www.w3.org/2000/svg">
<mask id="mask0_3291_57995" style="mask-type:alpha" maskUnits="userSpaceOnUse" x="3" y="3" width="24" height="24">
<path d="M24.0272 19.0852L20.8522 18.7227C20.0897 18.6352 19.3397 18.8977 18.8022 19.4352L16.5022 21.7352C12.9647 19.9352 10.0647 17.0477 8.26474 13.4977L10.5772 11.1852C11.1147 10.6477 11.3772 9.89771 11.2897 9.13521L10.9272 5.98521C10.7772 4.72271 9.71474 3.77271 8.43974 3.77271H6.27724C4.86474 3.77271 3.68974 4.94771 3.77724 6.3602C4.43974 17.0352 12.9772 25.5602 23.6397 26.2227C25.0522 26.3102 26.2272 25.1352 26.2272 23.7227V21.5602C26.2397 20.2977 25.2897 19.2352 24.0272 19.0852Z" fill="black"/>
</mask>
<g mask="url(#mask0_3291_57995)">
<rect x="3.75" y="3.75" width="30" height="30" fill="white"/>
</g>
</svg>
