<svg width="26" height="26" viewBox="0 0 26 26" fill="none" xmlns="http://www.w3.org/2000/svg">
<mask id="mask0_3243_57348" style="mask-type:alpha" maskUnits="userSpaceOnUse" x="2" y="2" width="22" height="22">
<path fill-rule="evenodd" clip-rule="evenodd" d="M21.667 2.16675H8.66699C7.47533 2.16675 6.50033 3.14175 6.50033 4.33341V17.3334C6.50033 18.5251 7.47533 19.5001 8.66699 19.5001H21.667C22.8587 19.5001 23.8337 18.5251 23.8337 17.3334V4.33341C23.8337 3.14175 22.8587 2.16675 21.667 2.16675ZM18.417 21.6667H5.41699C4.82116 21.6667 4.33366 21.1792 4.33366 20.5834V7.58342C4.33366 6.98758 3.84616 6.50008 3.25033 6.50008C2.65449 6.50008 2.16699 6.98758 2.16699 7.58342V21.6667C2.16699 22.8584 3.14199 23.8334 4.33366 23.8334H18.417C19.0128 23.8334 19.5003 23.3459 19.5003 22.7501C19.5003 22.1542 19.0128 21.6667 18.417 21.6667ZM18.9587 11.3751L21.667 13.0001V4.33341H16.2503V13.0001L18.9587 11.3751Z" fill="black"/>
</mask>
<g mask="url(#mask0_3243_57348)">
<rect width="26" height="26" fill="white"/>
</g>
</svg>
