<svg width="15" height="15" viewBox="0 0 15 15" fill="none" xmlns="http://www.w3.org/2000/svg">
<mask id="mask0_2875_53631" style="mask-type:alpha" maskUnits="userSpaceOnUse" x="3" y="1" width="9" height="13">
<path fill-rule="evenodd" clip-rule="evenodd" d="M9.13984 2.05625L9.57304 2.5H11.0984C11.434 2.5 11.7086 2.78125 11.7086 3.125C11.7086 3.46875 11.434 3.75 11.0984 3.75H3.77665C3.44107 3.75 3.1665 3.46875 3.1665 3.125C3.1665 2.78125 3.44107 2.5 3.77665 2.5H5.30202L5.73522 2.05625C5.84505 1.94375 6.00368 1.875 6.16232 1.875H8.71273C8.87137 1.875 9.03001 1.94375 9.13984 2.05625ZM3.77665 11.875C3.77665 12.5625 4.32578 13.125 4.99694 13.125H9.87811C10.5493 13.125 11.0984 12.5625 11.0984 11.875V5.625C11.0984 4.9375 10.5493 4.375 9.87811 4.375H4.99694C4.32578 4.375 3.77665 4.9375 3.77665 5.625V11.875ZM5.71081 6.98125C5.94877 6.7375 6.33316 6.7375 6.57112 6.98125L7.43753 7.86875L8.30394 6.98125C8.54189 6.7375 8.92628 6.7375 9.16424 6.98125C9.4022 7.225 9.4022 7.61875 9.16424 7.8625L8.29783 8.75L9.16424 9.6375C9.4022 9.88125 9.4022 10.275 9.16424 10.5188C8.92628 10.7625 8.54189 10.7625 8.30394 10.5188L7.43753 9.63125L6.57112 10.5188C6.33316 10.7625 5.94877 10.7625 5.71081 10.5188C5.59656 10.402 5.53235 10.2434 5.53235 10.0781C5.53235 9.9128 5.59656 9.75427 5.71081 9.6375L6.57722 8.75L5.71081 7.8625C5.47286 7.625 5.47286 7.225 5.71081 6.98125Z" fill="black"/>
</mask>
<g mask="url(#mask0_2875_53631)">
<rect x="0.115723" width="14.6435" height="15" fill="#E86C00" fill-opacity="0.6"/>
</g>
</svg>
