<svg width="128" height="137" viewBox="0 0 128 137" fill="none" xmlns="http://www.w3.org/2000/svg">
<mask id="mask0_2954_54046" style="mask-type:alpha" maskUnits="userSpaceOnUse" x="10" y="15" width="108" height="107">
<path fill-rule="evenodd" clip-rule="evenodd" d="M112.267 43.6329C115.307 45.6308 117.28 49.2271 117.28 53.3371L117.334 110.42C117.334 116.7 112.534 121.837 106.667 121.837H21.3337C15.467 121.837 10.667 116.7 10.667 110.42V53.3371C10.667 49.2271 12.6937 45.6308 15.7337 43.6329L58.6137 16.7467C61.9203 14.6346 66.0803 14.6346 69.387 16.7467L112.267 43.6329ZM19.947 52.4237L58.347 78.1112C61.8137 80.3946 66.187 80.3946 69.6537 78.1112L108.054 52.4237L69.387 28.1633C66.0803 26.0512 61.9203 26.0512 58.6137 28.1633L19.947 52.4237Z" fill="black"/>
</mask>
<g mask="url(#mask0_2954_54046)">
<rect width="128" height="137" fill="#2C3A4B"/>
</g>
</svg>
