<svg width="32" height="32" viewBox="0 0 32 32" fill="none" xmlns="http://www.w3.org/2000/svg">
<mask id="mask0_2866_52860" style="mask-type:alpha" maskUnits="userSpaceOnUse" x="3" y="4" width="26" height="24">
<path d="M13.3305 25.7698V19.1032H18.6639V25.7698C18.6639 26.5032 19.2639 27.1032 19.9972 27.1032H23.9972C24.7305 27.1032 25.3305 26.5032 25.3305 25.7698V16.4365H27.5972C28.2105 16.4365 28.5039 15.6765 28.0372 15.2765L16.8905 5.23648C16.3839 4.78315 15.6105 4.78315 15.1039 5.23648L3.9572 15.2765C3.50387 15.6765 3.78387 16.4365 4.3972 16.4365H6.66387V25.7698C6.66387 26.5032 7.26387 27.1032 7.9972 27.1032H11.9972C12.7305 27.1032 13.3305 26.5032 13.3305 25.7698Z" fill="black"/>
</mask>
<g mask="url(#mask0_2866_52860)">
<rect width="32" height="32" fill="white"/>
</g>
</svg>
