<svg width="16" height="15" viewBox="0 0 16 15" fill="none" xmlns="http://www.w3.org/2000/svg">
<mask id="mask0_2875_53625" style="mask-type:alpha" maskUnits="userSpaceOnUse" x="1" y="1" width="14" height="13">
<path fill-rule="evenodd" clip-rule="evenodd" d="M7.7734 1.25C4.24148 1.25 1.375 4.05 1.375 7.5C1.375 10.95 4.24148 13.75 7.7734 13.75C11.3053 13.75 14.1718 10.95 14.1718 7.5C14.1718 4.05 11.3053 1.25 7.7734 1.25ZM7.7734 10.625C7.42149 10.625 7.13356 10.3438 7.13356 10V7.5C7.13356 7.15625 7.42149 6.875 7.7734 6.875C8.12531 6.875 8.41324 7.15625 8.41324 7.5V10C8.41324 10.3438 8.12531 10.625 7.7734 10.625ZM7.13356 5.625H8.41324V4.375H7.13356V5.625Z" fill="black"/>
</mask>
<g mask="url(#mask0_2875_53625)">
<rect x="0.0952148" width="15.3562" height="15" fill="white"/>
</g>
</svg>
