<svg width="34" height="34" viewBox="0 0 34 34" fill="none" xmlns="http://www.w3.org/2000/svg">
<mask id="mask0_2854_51428" style="mask-type:alpha" maskUnits="userSpaceOnUse" x="2" y="2" width="30" height="30">
<path fill-rule="evenodd" clip-rule="evenodd" d="M17.0002 2.83301C9.18016 2.83301 2.8335 9.17967 2.8335 16.9997C2.8335 24.8197 9.18016 31.1663 17.0002 31.1663C24.8202 31.1663 31.1668 24.8197 31.1668 16.9997C31.1668 9.17967 24.8202 2.83301 17.0002 2.83301ZM17.0002 24.083C16.221 24.083 15.5835 23.4455 15.5835 22.6663V16.9997C15.5835 16.2205 16.221 15.583 17.0002 15.583C17.7793 15.583 18.4168 16.2205 18.4168 16.9997V22.6663C18.4168 23.4455 17.7793 24.083 17.0002 24.083ZM15.5835 12.7497H18.4168V9.91634H15.5835V12.7497Z" fill="black"/>
</mask>
<g mask="url(#mask0_2854_51428)">
<rect width="34" height="34" fill="#09101D"/>
</g>
</svg>
