<svg width="38" height="39" viewBox="0 0 38 39" fill="none" xmlns="http://www.w3.org/2000/svg">
<mask id="mask0_2953_54778" style="mask-type:alpha" maskUnits="userSpaceOnUse" x="3" y="3" width="32" height="33">
<path fill-rule="evenodd" clip-rule="evenodd" d="M31.667 3.25H12.667C10.9253 3.25 9.50033 4.7125 9.50033 6.5V26C9.50033 27.7875 10.9253 29.25 12.667 29.25H31.667C33.4087 29.25 34.8337 27.7875 34.8337 26V6.5C34.8337 4.7125 33.4087 3.25 31.667 3.25ZM4.75033 9.75C3.87949 9.75 3.16699 10.4812 3.16699 11.375V32.5C3.16699 34.2875 4.59199 35.75 6.33366 35.75H26.917C27.7878 35.75 28.5003 35.0187 28.5003 34.125C28.5003 33.2313 27.7878 32.5 26.917 32.5H7.91699C7.04616 32.5 6.33366 31.7687 6.33366 30.875V11.375C6.33366 10.4812 5.62116 9.75 4.75033 9.75ZM15.8337 17.875H28.5003C29.3712 17.875 30.0837 17.1438 30.0837 16.25C30.0837 15.3562 29.3712 14.625 28.5003 14.625H15.8337C14.9628 14.625 14.2503 15.3562 14.2503 16.25C14.2503 17.1438 14.9628 17.875 15.8337 17.875ZM22.167 24.375H15.8337C14.9628 24.375 14.2503 23.6437 14.2503 22.75C14.2503 21.8563 14.9628 21.125 15.8337 21.125H22.167C23.0378 21.125 23.7503 21.8563 23.7503 22.75C23.7503 23.6437 23.0378 24.375 22.167 24.375ZM15.8337 11.375H28.5003C29.3712 11.375 30.0837 10.6438 30.0837 9.75C30.0837 8.85625 29.3712 8.125 28.5003 8.125H15.8337C14.9628 8.125 14.2503 8.85625 14.2503 9.75C14.2503 10.6438 14.9628 11.375 15.8337 11.375Z" fill="black"/>
</mask>
<g mask="url(#mask0_2953_54778)">
<rect width="38" height="39" fill="#F4F6F9"/>
</g>
</svg>
