<svg width="40" height="40" viewBox="0 0 40 40" fill="none" xmlns="http://www.w3.org/2000/svg">
<mask id="mask0_3291_57981" style="mask-type:alpha" maskUnits="userSpaceOnUse" x="8" y="3" width="24" height="34">
<path fill-rule="evenodd" clip-rule="evenodd" d="M8.33334 15.4417C8.33334 8.99169 13.55 3.77502 20 3.77502C26.45 3.77502 31.6667 8.99169 31.6667 15.4417C31.6667 22.3917 24.3 31.975 21.2833 35.625C20.6167 36.425 19.4 36.425 18.7333 35.625C15.7 31.975 8.33334 22.3917 8.33334 15.4417ZM15.8333 15.4417C15.8333 17.7417 17.7 19.6084 20 19.6084C22.3 19.6084 24.1667 17.7417 24.1667 15.4417C24.1667 13.1417 22.3 11.275 20 11.275C17.7 11.275 15.8333 13.1417 15.8333 15.4417Z" fill="black"/>
</mask>
<g mask="url(#mask0_3291_57981)">
<rect width="40" height="40" fill="white"/>
</g>
</svg>
