<svg width="37" height="37" viewBox="0 0 37 37" fill="none" xmlns="http://www.w3.org/2000/svg">
<mask id="mask0_3291_57988" style="mask-type:alpha" maskUnits="userSpaceOnUse" x="3" y="6" width="31" height="25">
<path fill-rule="evenodd" clip-rule="evenodd" d="M6.16668 6.16663H30.8333C32.5292 6.16663 33.9167 7.55413 33.9167 9.24996V27.75C33.9167 29.4458 32.5292 30.8333 30.8333 30.8333H6.16668C4.47084 30.8333 3.08334 29.4458 3.08334 27.75V9.24996C3.08334 7.55413 4.47084 6.16663 6.16668 6.16663ZM20.1342 19.0241L30.2167 12.7187C30.6021 12.472 30.8333 12.0558 30.8333 11.6087C30.8333 10.5758 29.7079 9.95913 28.8292 10.4987L18.5 16.9583L8.17084 10.4987C7.29209 9.95913 6.16668 10.5758 6.16668 11.6087C6.16668 12.0558 6.39793 12.472 6.78334 12.7187L16.8658 19.0241C17.8679 19.6562 19.1321 19.6562 20.1342 19.0241Z" fill="black"/>
</mask>
<g mask="url(#mask0_3291_57988)">
<rect width="37" height="37" fill="white"/>
</g>
</svg>
