<svg width="38" height="42" viewBox="0 0 38 42" fill="none" xmlns="http://www.w3.org/2000/svg">
<mask id="mask0_2851_51264" style="mask-type:alpha" maskUnits="userSpaceOnUse" x="3" y="8" width="32" height="26">
<path fill-rule="evenodd" clip-rule="evenodd" d="M19.7915 14.875C19.7915 18.2525 17.3057 21 14.2498 21C11.194 21 8.70817 18.2525 8.70817 14.875C8.70817 11.4975 11.194 8.75 14.2498 8.75C17.3057 8.75 19.7915 11.4975 19.7915 14.875ZM16.6248 14.875C16.6248 13.4225 15.564 12.25 14.2498 12.25C12.9357 12.25 11.8748 13.4225 11.8748 14.875C11.8748 16.3275 12.9357 17.5 14.2498 17.5C15.564 17.5 16.6248 16.3275 16.6248 14.875ZM14.2498 24.0625C10.5448 24.0625 3.1665 26.11 3.1665 30.1875V31.5C3.1665 32.4625 3.879 33.25 4.74984 33.25H23.7498C24.6207 33.25 25.3332 32.4625 25.3332 31.5V30.1875C25.3332 26.11 17.9548 24.0625 14.2498 24.0625ZM14.2498 27.5625C11.4157 27.5625 8.2015 28.735 6.8715 29.75H21.6282C20.2982 28.735 17.084 27.5625 14.2498 27.5625ZM25.3965 24.1675C27.2332 25.6375 28.4998 27.5975 28.4998 30.1875V33.25H33.2498C34.1207 33.25 34.8332 32.4625 34.8332 31.5V30.1875C34.8332 26.6525 29.2915 24.64 25.3965 24.1675ZM29.2915 14.875C29.2915 18.2525 26.8057 21 23.7498 21C22.8948 21 22.1032 20.7725 21.3748 20.3875C22.3723 18.83 22.9582 16.9225 22.9582 14.875C22.9582 12.8275 22.3723 10.92 21.3748 9.3625C22.1032 8.9775 22.8948 8.75 23.7498 8.75C26.8057 8.75 29.2915 11.4975 29.2915 14.875Z" fill="black"/>
</mask>
<g mask="url(#mask0_2851_51264)">
<rect width="38" height="42" fill="#F4F6F9"/>
</g>
</svg>
