<svg width="38" height="42" viewBox="0 0 38 42" fill="none" xmlns="http://www.w3.org/2000/svg">
<mask id="mask0_2851_51254" style="mask-type:alpha" maskUnits="userSpaceOnUse" x="1" y="8" width="36" height="26">
<path fill-rule="evenodd" clip-rule="evenodd" d="M17.401 14C17.401 16.905 15.2952 19.25 12.6668 19.25C10.0385 19.25 7.91683 16.905 7.91683 14C7.91683 11.095 10.0385 8.75 12.6668 8.75C15.2952 8.75 17.401 11.095 17.401 14ZM30.0677 14C30.0677 16.905 27.9618 19.25 25.3335 19.25C22.7052 19.25 20.5835 16.905 20.5835 14C20.5835 11.095 22.7052 8.75 25.3335 8.75C27.9618 8.75 30.0677 11.095 30.0677 14ZM12.6668 22.75C8.97766 22.75 1.5835 24.7975 1.5835 28.875V31.5C1.5835 32.4625 2.296 33.25 3.16683 33.25H22.1668C23.0377 33.25 23.7502 32.4625 23.7502 31.5V28.875C23.7502 24.7975 16.356 22.75 12.6668 22.75ZM23.7977 22.8375C24.3518 22.785 24.8743 22.75 25.3335 22.75C29.0227 22.75 36.4168 24.7975 36.4168 28.875V31.5C36.4168 32.4625 35.7043 33.25 34.8335 33.25H26.6318C26.806 32.7075 26.9168 32.1125 26.9168 31.5V28.875C26.9168 26.3025 25.666 24.36 23.861 22.9075C23.8562 22.9022 23.8514 22.8953 23.8462 22.8878C23.8341 22.8704 23.8197 22.8497 23.7977 22.8375Z" fill="black"/>
</mask>
<g mask="url(#mask0_2851_51254)">
<rect width="38" height="42" fill="#F4F6F9"/>
</g>
</svg>
