<svg width="32" height="32" viewBox="0 0 32 32" fill="none" xmlns="http://www.w3.org/2000/svg">
<mask id="mask0_2866_52869" style="mask-type:alpha" maskUnits="userSpaceOnUse" x="5" y="5" width="22" height="22">
<path fill-rule="evenodd" clip-rule="evenodd" d="M21.3335 10.6663C21.3335 13.613 18.9468 15.9997 16.0002 15.9997C13.0535 15.9997 10.6668 13.613 10.6668 10.6663C10.6668 7.71967 13.0535 5.33301 16.0002 5.33301C18.9468 5.33301 21.3335 7.71967 21.3335 10.6663ZM5.3335 23.9997C5.3335 20.453 12.4402 18.6663 16.0002 18.6663C19.5602 18.6663 26.6668 20.453 26.6668 23.9997V25.333C26.6668 26.0663 26.0668 26.6663 25.3335 26.6663H6.66683C5.9335 26.6663 5.3335 26.0663 5.3335 25.333V23.9997Z" fill="black"/>
</mask>
<g mask="url(#mask0_2866_52869)">
<rect width="32" height="32" fill="white"/>
</g>
</svg>
