<svg width="26" height="26" viewBox="0 0 26 26" fill="none" xmlns="http://www.w3.org/2000/svg">
<mask id="mask0_2882_52615" style="mask-type:alpha" maskUnits="userSpaceOnUse" x="1" y="4" width="24" height="18">
<path fill-rule="evenodd" clip-rule="evenodd" d="M16.2502 13.0002C18.6443 13.0002 20.5835 11.061 20.5835 8.66683C20.5835 6.27266 18.6443 4.3335 16.2502 4.3335C13.856 4.3335 11.9168 6.27266 11.9168 8.66683C11.9168 11.061 13.856 13.0002 16.2502 13.0002ZM6.50016 10.8335V8.66683C6.50016 8.071 6.01266 7.5835 5.41683 7.5835C4.821 7.5835 4.3335 8.071 4.3335 8.66683V10.8335H2.16683C1.571 10.8335 1.0835 11.321 1.0835 11.9168C1.0835 12.5127 1.571 13.0002 2.16683 13.0002H4.3335V15.1668C4.3335 15.7627 4.821 16.2502 5.41683 16.2502C6.01266 16.2502 6.50016 15.7627 6.50016 15.1668V13.0002H8.66683C9.26266 13.0002 9.75016 12.5127 9.75016 11.9168C9.75016 11.321 9.26266 10.8335 8.66683 10.8335H6.50016ZM7.5835 19.5002C7.5835 16.6185 13.3577 15.1668 16.2502 15.1668C19.1427 15.1668 24.9168 16.6185 24.9168 19.5002V20.5835C24.9168 21.1793 24.4293 21.6668 23.8335 21.6668H8.66683C8.071 21.6668 7.5835 21.1793 7.5835 20.5835V19.5002Z" fill="black"/>
</mask>
<g mask="url(#mask0_2882_52615)">
<rect width="26" height="26" fill="white"/>
</g>
</svg>
