<svg width="42" height="42" viewBox="0 0 42 42" fill="none" xmlns="http://www.w3.org/2000/svg">
<mask id="mask0_3237_57387" style="mask-type:alpha" maskUnits="userSpaceOnUse" x="2" y="9" width="38" height="24">
<path fill-rule="evenodd" clip-rule="evenodd" d="M4.73145 9.10645H22.2314C23.1939 9.10645 23.9814 9.89395 23.9814 10.8564C23.9814 11.8189 23.1939 12.6064 22.2314 12.6064H4.73145C3.76895 12.6064 2.98145 11.8189 2.98145 10.8564C2.98145 9.89395 3.76895 9.10645 4.73145 9.10645ZM4.73145 16.1064H22.2314C23.1939 16.1064 23.9814 16.8939 23.9814 17.8564C23.9814 18.8189 23.1939 19.6064 22.2314 19.6064H4.73145C3.76895 19.6064 2.98145 18.8189 2.98145 17.8564C2.98145 16.8939 3.76895 16.1064 4.73145 16.1064ZM4.73145 26.6064H15.2314C16.1939 26.6064 16.9814 25.8189 16.9814 24.8564C16.9814 23.8939 16.1939 23.1064 15.2314 23.1064H4.73145C3.76895 23.1064 2.98145 23.8939 2.98145 24.8564C2.98145 25.8189 3.76895 26.6064 4.73145 26.6064ZM38.5064 20.1314L38.3489 19.9739C37.6664 19.2914 36.5464 19.2914 35.8814 19.9914L27.5164 28.3739L23.4914 24.3489C22.8089 23.6664 21.7064 23.6664 21.0239 24.3489L20.8664 24.5064C20.5388 24.8334 20.3546 25.2773 20.3546 25.7402C20.3546 26.2031 20.5388 26.647 20.8664 26.9739L26.2739 32.3814C26.9564 33.0639 28.0589 33.0639 28.7414 32.3814L38.5064 22.5989C39.1889 21.9164 39.1889 20.8139 38.5064 20.1314Z" fill="black"/>
</mask>
<g mask="url(#mask0_3237_57387)">
<rect width="42" height="42" fill="white"/>
</g>
</svg>
