<svg width="50" height="50" viewBox="0 0 50 50" fill="none" xmlns="http://www.w3.org/2000/svg">
<mask id="mask0_2958_54032" style="mask-type:alpha" maskUnits="userSpaceOnUse" x="7" y="7" width="36" height="36">
<path fill-rule="evenodd" clip-rule="evenodd" d="M31.6383 30.1489H33.2842L42.1175 39.0239C42.9717 39.8781 42.9717 41.2739 42.1175 42.1281C41.2633 42.9823 39.8675 42.9823 39.0133 42.1281L30.1592 33.2739V31.6281L29.5967 31.0448C26.68 33.5448 22.7008 34.8364 18.4717 34.1281C12.68 33.1489 8.05501 28.3156 7.34668 22.4823C6.26335 13.6698 13.68 6.25309 22.4925 7.33643C28.3258 8.04476 33.1592 12.6698 34.1383 18.4614C34.8467 22.6906 33.555 26.6698 31.055 29.5864L31.6383 30.1489ZM11.4092 20.7739C11.4092 25.9614 15.5967 30.1489 20.7842 30.1489C25.9717 30.1489 30.1592 25.9614 30.1592 20.7739C30.1592 15.5864 25.9717 11.3989 20.7842 11.3989C15.5967 11.3989 11.4092 15.5864 11.4092 20.7739Z" fill="black"/>
</mask>
<g mask="url(#mask0_2958_54032)">
<rect width="50" height="50" fill="white"/>
</g>
</svg>
